# xmcd
#
# Track frame offsets:
#	150
#	15242
#	31794
#	49427
#	65112
#	81290
#	98797
#	116257
#	132015
#	149050
#	165130
#	181432
#	198547
#	214255
#	230497
#	243202
#
# Disc length: 3428
#
# Revision: 1
# Processed by: cddbd v1.5.1PL0 Copyright (c) Steve Scherf et al.
# Submitted via: VisiTrax 2.9.5.180 - For more info visit www.synapsa.com
# Normalized: r0:DSETVAR1
#
DISCID=d90d6210
DTITLE=Various Artist - CDX 190 June 1998
DYEAR=1998
DGENRE=
TTITLE0=Becky Hobbs - Country girls
TTITLE1=Mark Wills - Don't laugh at me
TTITLE2=Lonestar - Everything's changed
TTITLE3=Wade hayes - How do you sleep at night
TTITLE4=Brady Seals - I fell
TTITLE5=Kevin Sharp - If she only knew
TTITLE6=Ken Mellons - Ladies night
TTITLE7=Daryle Singletary - My Baby's lovin'
TTITLE8=Billy Dean - Real man
TTITLE9=Steve Wariner - Road trippin
TTITLE10=Jeff Carson - Shine on
TTITLE11=Eddy Raven - Somebody's tearin' the flag
TTITLE12=Crawford/West - The healing end
TTITLE13=George Strait - True
TTITLE14=Lynns - What am I doing loving you
TTITLE15=Duane Staley - Holding on to nothing
EXTD=
EXTT0=
EXTT1=
EXTT2=
EXTT3=
EXTT4=
EXTT5=
EXTT6=
EXTT7=
EXTT8=
EXTT9=
EXTT10=
EXTT11=
EXTT12=
EXTT13=
EXTT14=
EXTT15=
PLAYORDER=
